<svg width="212" height="180" viewBox="0 0 212 180" fill="none" xmlns="http://www.w3.org/2000/svg">
<path d="M33.2534 83.2884C34.6962 64.2116 42.2476 46.1074 54.7883 31.6597C67.3291 17.212 84.1915 7.18986 102.876 3.07898C121.56 -1.03191 141.072 0.987304 158.519 8.83728C175.965 16.6873 190.418 29.9501 199.734 46.6597C209.051 63.3694 212.735 82.6363 210.24 101.604C207.746 120.572 199.206 138.232 185.886 151.964C172.566 165.697 155.176 174.772 136.293 177.845C117.41 180.917 98.0396 177.823 81.0533 169.021" stroke="black" stroke-width="2"/>
<path d="M72.0089 81.6665L81.9929 59.2665H87.1129L97.1289 81.6665H91.6889L83.4969 61.8905H85.5449L77.3209 81.6665H72.0089ZM77.0009 76.8665L78.3769 72.9305H89.8969L91.3049 76.8665H77.0009ZM109.956 82.0505C108.186 82.0505 106.554 81.7732 105.06 81.2185C103.588 80.6425 102.298 79.8318 101.188 78.7865C100.1 77.7412 99.247 76.5145 98.6284 75.1065C98.031 73.6985 97.7324 72.1518 97.7324 70.4665C97.7324 68.7812 98.031 67.2345 98.6284 65.8265C99.247 64.4185 100.111 63.1918 101.22 62.1465C102.33 61.1012 103.631 60.3012 105.124 59.7465C106.618 59.1705 108.26 58.8825 110.052 58.8825C112.036 58.8825 113.818 59.2132 115.396 59.8745C116.996 60.5358 118.34 61.4958 119.428 62.7545L116.1 65.8265C115.29 64.9732 114.404 64.3438 113.444 63.9385C112.484 63.5118 111.439 63.2985 110.308 63.2985C109.22 63.2985 108.228 63.4692 107.332 63.8105C106.436 64.1518 105.658 64.6425 104.996 65.2825C104.356 65.9225 103.855 66.6798 103.492 67.5545C103.151 68.4292 102.98 69.3998 102.98 70.4665C102.98 71.5118 103.151 72.4718 103.492 73.3465C103.855 74.2212 104.356 74.9892 104.996 75.6505C105.658 76.2905 106.426 76.7812 107.3 77.1225C108.196 77.4638 109.178 77.6345 110.244 77.6345C111.268 77.6345 112.26 77.4745 113.22 77.1545C114.202 76.8132 115.151 76.2478 116.068 75.4585L119.012 79.2025C117.796 80.1198 116.378 80.8238 114.756 81.3145C113.156 81.8052 111.556 82.0505 109.956 82.0505ZM114.276 78.5305V70.1145H119.012V79.2025L114.276 78.5305ZM123.828 81.6665V59.2665H133.524C135.529 59.2665 137.257 59.5972 138.708 60.2585C140.159 60.8985 141.279 61.8265 142.068 63.0425C142.857 64.2585 143.252 65.7092 143.252 67.3945C143.252 69.0585 142.857 70.4985 142.068 71.7145C141.279 72.9092 140.159 73.8265 138.708 74.4665C137.257 75.1065 135.529 75.4265 133.524 75.4265H126.708L129.012 73.1545V81.6665H123.828ZM138.068 81.6665L132.468 73.5385H138.004L143.668 81.6665H138.068ZM129.012 73.7305L126.708 71.2985H133.236C134.836 71.2985 136.031 70.9572 136.82 70.2745C137.609 69.5705 138.004 68.6105 138.004 67.3945C138.004 66.1572 137.609 65.1972 136.82 64.5145C136.031 63.8318 134.836 63.4905 133.236 63.4905H126.708L129.012 61.0265V73.7305ZM158.239 82.0505C156.468 82.0505 154.826 81.7625 153.311 81.1865C151.818 80.6105 150.516 79.7998 149.407 78.7545C148.319 77.7092 147.466 76.4825 146.847 75.0745C146.25 73.6665 145.951 72.1305 145.951 70.4665C145.951 68.8025 146.25 67.2665 146.847 65.8585C147.466 64.4505 148.33 63.2238 149.439 62.1785C150.548 61.1332 151.85 60.3225 153.343 59.7465C154.836 59.1705 156.458 58.8825 158.207 58.8825C159.978 58.8825 161.599 59.1705 163.071 59.7465C164.564 60.3225 165.855 61.1332 166.943 62.1785C168.052 63.2238 168.916 64.4505 169.535 65.8585C170.154 67.2452 170.463 68.7812 170.463 70.4665C170.463 72.1305 170.154 73.6772 169.535 75.1065C168.916 76.5145 168.052 77.7412 166.943 78.7865C165.855 79.8105 164.564 80.6105 163.071 81.1865C161.599 81.7625 159.988 82.0505 158.239 82.0505ZM158.207 77.6345C159.21 77.6345 160.127 77.4638 160.959 77.1225C161.812 76.7812 162.559 76.2905 163.199 75.6505C163.839 75.0105 164.33 74.2532 164.671 73.3785C165.034 72.5038 165.215 71.5332 165.215 70.4665C165.215 69.3998 165.034 68.4292 164.671 67.5545C164.33 66.6798 163.839 65.9225 163.199 65.2825C162.58 64.6425 161.844 64.1518 160.991 63.8105C160.138 63.4692 159.21 63.2985 158.207 63.2985C157.204 63.2985 156.276 63.4692 155.423 63.8105C154.591 64.1518 153.855 64.6425 153.215 65.2825C152.575 65.9225 152.074 66.6798 151.711 67.5545C151.37 68.4292 151.199 69.3998 151.199 70.4665C151.199 71.5118 151.37 72.4825 151.711 73.3785C152.074 74.2532 152.564 75.0105 153.183 75.6505C153.823 76.2905 154.57 76.7812 155.423 77.1225C156.276 77.4638 157.204 77.6345 158.207 77.6345ZM75.156 120.667V98.2665H79.444L88.98 114.075H86.708L96.084 98.2665H100.34L100.404 120.667H95.54L95.508 105.723H96.404L88.916 118.299H86.58L78.932 105.723H80.02V120.667H75.156ZM102.775 120.667L112.759 98.2665H117.879L127.895 120.667H122.455L114.263 100.891H116.311L108.087 120.667H102.775ZM107.767 115.867L109.143 111.931H120.663L122.071 115.867H107.767ZM130.218 120.667V98.2665H139.914C141.92 98.2665 143.648 98.5972 145.099 99.2585C146.549 99.8985 147.669 100.827 148.459 102.043C149.248 103.259 149.643 104.709 149.643 106.395C149.643 108.059 149.248 109.499 148.459 110.715C147.669 111.909 146.549 112.827 145.099 113.467C143.648 114.107 141.92 114.427 139.914 114.427H133.098L135.402 112.155V120.667H130.218ZM144.458 120.667L138.858 112.539H144.394L150.058 120.667H144.458ZM135.402 112.731L133.098 110.299H139.626C141.226 110.299 142.421 109.957 143.21 109.275C144 108.571 144.394 107.611 144.394 106.395C144.394 105.157 144 104.197 143.21 103.515C142.421 102.832 141.226 102.491 139.626 102.491H133.098L135.402 100.027V112.731ZM161.11 121.051C159.318 121.051 157.6 120.816 155.958 120.347C154.315 119.856 152.992 119.227 151.99 118.459L153.75 114.555C154.71 115.237 155.84 115.803 157.142 116.251C158.464 116.677 159.798 116.891 161.142 116.891C162.166 116.891 162.987 116.795 163.606 116.603C164.246 116.389 164.715 116.101 165.014 115.739C165.312 115.376 165.462 114.96 165.462 114.491C165.462 113.893 165.227 113.424 164.758 113.083C164.288 112.72 163.67 112.432 162.902 112.219C162.134 111.984 161.28 111.771 160.342 111.579C159.424 111.365 158.496 111.109 157.558 110.811C156.64 110.512 155.798 110.128 155.03 109.659C154.262 109.189 153.632 108.571 153.142 107.803C152.672 107.035 152.438 106.053 152.438 104.859C152.438 103.579 152.779 102.416 153.462 101.371C154.166 100.304 155.211 99.4612 156.598 98.8425C158.006 98.2025 159.766 97.8825 161.878 97.8825C163.286 97.8825 164.672 98.0532 166.038 98.3945C167.403 98.7145 168.608 99.2052 169.654 99.8665L168.054 103.803C167.008 103.205 165.963 102.768 164.918 102.491C163.872 102.192 162.848 102.043 161.846 102.043C160.843 102.043 160.022 102.16 159.382 102.395C158.742 102.629 158.283 102.939 158.006 103.323C157.728 103.685 157.59 104.112 157.59 104.603C157.59 105.179 157.824 105.648 158.294 106.011C158.763 106.352 159.382 106.629 160.15 106.843C160.918 107.056 161.76 107.269 162.678 107.483C163.616 107.696 164.544 107.941 165.462 108.219C166.4 108.496 167.254 108.869 168.022 109.339C168.79 109.808 169.408 110.427 169.878 111.195C170.368 111.963 170.614 112.933 170.614 114.107C170.614 115.365 170.262 116.517 169.558 117.563C168.854 118.608 167.798 119.451 166.39 120.091C165.003 120.731 163.243 121.051 161.11 121.051Z" fill="black"/>
<path d="M51.2935 166.137C57.7483 172.778 70.0554 172.775 75.4021 171.943C69.3359 152.956 51.3708 153.432 43.1466 156.044C43.1727 156.641 44.8386 159.495 51.2935 166.137Z" fill="#B98500" stroke="#715200" stroke-width="0.666667"/>
<path d="M32.1237 143.959C38.7872 150.392 51.0879 149.995 56.4053 148.993C49.7362 130.209 31.7955 131.259 23.6588 134.132C23.7039 134.727 25.4601 137.527 32.1237 143.959Z" fill="#B98500" stroke="#715200" stroke-width="0.666667"/>
<path d="M10.4628 118.136C15.8026 125.703 27.9597 127.619 33.3707 127.631C30.3404 107.931 12.5209 105.599 3.98989 106.896C3.92258 107.49 5.12292 110.569 10.4628 118.136Z" fill="#B98500" stroke="#715200" stroke-width="0.666667"/>
<path d="M67.0839 155.359C60.4419 148.905 60.445 136.597 61.2769 131.251C80.2643 137.316 79.7886 155.281 77.1773 163.505C76.5803 163.479 73.7259 161.814 67.0839 155.359Z" fill="#B98500" stroke="#715200" stroke-width="0.666667"/>
<path d="M46.058 128.603C39.2133 122.364 38.8237 110.063 39.4844 104.693C58.6557 110.149 58.7537 128.12 56.4063 136.423C55.8088 136.416 52.9026 134.843 46.058 128.603Z" fill="#B98500" stroke="#715200" stroke-width="0.666667"/>
<path d="M25.1317 107.029C19.5777 99.6172 21.5005 87.4612 23.1561 82.3097C40.9651 91.2624 37.693 108.933 33.8309 116.65C33.2453 116.531 30.6856 114.44 25.1317 107.029Z" fill="#B98500" stroke="#715200" stroke-width="0.666667"/>
</svg>
