<svg width="229" height="48" viewBox="0 0 229 48" fill="none" xmlns="http://www.w3.org/2000/svg">
<g clip-path="url(#clip0_25_43)">
<path d="M9.06407 22.3032C9.4288 17.4804 11.3379 12.9036 14.5083 9.25105C17.6787 5.59854 21.9417 3.06485 26.6653 2.02558C31.3888 0.986311 36.3216 1.49679 40.7322 3.48133C45.1429 5.46588 48.7967 8.81885 51.1519 13.0432C53.5072 17.2675 54.4385 22.1384 53.8079 26.9336C53.1773 31.7289 51.0183 36.1934 47.651 39.6651C44.2836 43.1369 39.8872 45.4312 35.1134 46.208C30.3396 46.9847 25.4426 46.2025 21.1483 43.9773" stroke="black" stroke-width="2"/>
<path d="M13.3014 43.7438C14.9753 45.4662 18.1668 45.4652 19.5533 45.2494C17.9802 40.3257 13.3215 40.4492 11.1888 41.1265C11.1956 41.2813 11.6276 42.0215 13.3014 43.7438Z" fill="#B98500" stroke="#715200"/>
<path d="M8.33034 37.9927C10.0583 39.6607 13.2482 39.5579 14.6271 39.298C12.8976 34.427 8.24523 34.6992 6.13522 35.4442C6.14693 35.5987 6.60235 36.3247 8.33034 37.9927Z" fill="#B98500" stroke="#715200"/>
<path d="M2.71318 31.2963C4.09792 33.2587 7.25049 33.7555 8.65369 33.7586C7.86785 28.6498 3.24688 28.0452 1.03463 28.3815C1.01718 28.5355 1.32845 29.334 2.71318 31.2963Z" fill="#B98500" stroke="#715200"/>
<path d="M17.3961 40.9489C15.6737 39.2752 15.6745 36.0837 15.8902 34.6972C20.814 36.27 20.6907 40.9287 20.0135 43.0615C19.8587 43.0547 19.1185 42.6227 17.3961 40.9489Z" fill="#B98500" stroke="#715200"/>
<path d="M11.9438 34.0106C10.1688 32.3927 10.0678 29.2028 10.2391 27.8101C15.2106 29.225 15.236 33.8853 14.6273 36.0385C14.4724 36.0367 13.7187 35.6286 11.9438 34.0106Z" fill="#B98500" stroke="#715200"/>
<path d="M6.51716 28.4159C5.07691 26.494 5.57553 23.3417 6.00487 22.0058C10.6231 24.3274 9.77458 28.9099 8.77305 30.9109C8.62119 30.8801 7.95741 30.3379 6.51716 28.4159Z" fill="#B98500" stroke="#715200"/>
<path d="M26.4256 26.4514C25.1053 25.131 22.957 25.131 21.6368 26.4514C20.3165 27.7716 20.3165 29.9199 21.6368 31.2401C22.2969 31.9003 23.1641 32.2304 24.0312 32.2304C24.8983 32.2304 25.7654 31.9003 26.4256 31.2401C27.7458 29.9199 27.7458 27.7716 26.4256 26.4514ZM22.2168 30.6601C21.2164 29.6597 21.2164 28.0318 22.2168 27.0314C22.717 26.5312 23.3741 26.2811 24.0312 26.2811C24.6883 26.2811 25.3453 26.5312 25.8456 27.0314C26.846 28.0318 26.846 29.6597 25.8456 30.6601C24.845 31.6606 23.2173 31.6606 22.2168 30.6601Z" fill="black"/>
<path d="M25.4864 27.3906C24.6841 26.5881 23.3784 26.5881 22.576 27.3906C21.7736 28.193 21.7736 29.4986 22.576 30.301C22.9772 30.7022 23.5042 30.9028 24.0312 30.9028C24.5582 30.9028 25.0852 30.7022 25.4864 30.301C26.2888 29.4986 26.2888 28.193 25.4864 27.3906ZM24.9064 29.7209C24.4239 30.2035 23.6387 30.2035 23.1561 29.7209C22.6735 29.2384 22.6735 28.4532 23.1561 27.9706C23.3974 27.7293 23.7143 27.6087 24.0313 27.6087C24.3482 27.6087 24.6651 27.7293 24.9064 27.9706C25.3889 28.4532 25.3889 29.2384 24.9064 29.7209Z" fill="black"/>
<path d="M43.6263 29.7129C43.8329 29.6201 43.9252 29.3773 43.8324 29.1707C43.401 28.2104 42.4422 27.59 41.3898 27.59C39.9139 27.59 38.7131 28.7907 38.7131 30.2666C38.7131 31.7426 39.9139 32.9433 41.3898 32.9433C42.4067 32.9433 43.323 32.3789 43.7811 31.4703C43.8831 31.268 43.8018 31.0214 43.5996 30.9195C43.3973 30.8175 43.1506 30.8987 43.0487 31.101C42.7308 31.7314 42.0952 32.123 41.3898 32.123C40.3662 32.123 39.5335 31.2902 39.5335 30.2666C39.5335 29.2431 40.3663 28.4103 41.3898 28.4103C42.1199 28.4103 42.7849 28.8407 43.0841 29.5068C43.1769 29.7134 43.4195 29.8056 43.6263 29.7129Z" fill="black"/>
<path d="M41.3897 28.8354C40.6005 28.8354 39.9585 29.4774 39.9585 30.2666C39.9585 31.0558 40.6005 31.6979 41.3897 31.6979C42.179 31.6979 42.821 31.0558 42.821 30.2666C42.821 29.4774 42.179 28.8354 41.3897 28.8354ZM41.3897 30.8776C41.0529 30.8776 40.7788 30.6036 40.7788 30.2667C40.7788 29.9298 41.0529 29.6558 41.3897 29.6558C41.7266 29.6558 42.0007 29.9298 42.0007 30.2667C42.0007 30.6036 41.7266 30.8776 41.3897 30.8776Z" fill="black"/>
<path d="M45.5898 34.0567H44.0104C45.2114 33.2236 46 31.8358 46 30.2667C46 28.8995 45.4012 27.67 44.4528 26.825V22.5724C44.4528 21.9738 44.0022 21.4566 43.4046 21.3694C43.3998 21.3687 43.395 21.3681 43.3902 21.3676L40.8328 21.0867V20.3828C40.8328 20.1563 40.6492 19.9727 40.4226 19.9727C40.1961 19.9727 40.0125 20.1563 40.0125 20.3828V20.9966L38.8802 20.8723V17.658C38.8802 17.5827 38.9415 17.5213 39.0169 17.5213H39.8758C39.9512 17.5213 40.0125 17.5827 40.0125 17.658V18.4141C40.0125 18.6406 40.1961 18.8242 40.4226 18.8242C40.6492 18.8242 40.8328 18.6406 40.8328 18.4141V17.658C40.8328 17.137 40.414 16.7126 39.8955 16.702V14.2942L40.4088 13.9092C40.5899 13.7733 40.6267 13.5162 40.4908 13.335C40.3548 13.1537 40.0977 13.117 39.9166 13.2529L39.2392 13.761C39.1359 13.8385 39.0751 13.9601 39.0751 14.0891V16.701H39.0169C38.4892 16.701 38.0599 17.1303 38.0599 17.658V20.7822L33.735 20.3071L31.9503 14.4723H31.9939C32.5216 14.4723 32.9509 14.0429 32.9509 13.5152V13.0801C32.9509 12.5524 32.5216 12.123 31.9939 12.123H20.6335C20.1058 12.123 19.6764 12.5524 19.6764 13.0801V13.5152C19.6764 14.0429 20.1058 14.4723 20.6335 14.4723H20.7612V22.2438C20.1059 22.5581 19.4942 22.9699 18.9462 23.473C18.8061 23.6016 18.7235 23.7847 18.7194 23.9754C18.7153 24.1673 18.7907 24.3552 18.9265 24.4909L19.3916 24.956L19.1087 25.2389C18.834 25.5136 18.8205 25.952 19.0681 26.2429C18.9115 26.5414 18.7815 26.855 18.6814 27.1769C18.3006 27.2074 18 27.5271 18 27.9156V29.776C18 30.1645 18.3005 30.4841 18.6814 30.5147C18.7816 30.8366 18.9115 31.1502 19.0682 31.4487C18.8205 31.7396 18.8341 32.178 19.1088 32.4527L20.4242 33.7682C20.6989 34.0428 21.1374 34.0565 21.4283 33.8088C21.6047 33.9014 21.7868 33.9834 21.9724 34.0567H18.4102C18.1836 34.0567 18 34.2403 18 34.4668C18 34.6933 18.1836 34.877 18.4102 34.877H45.5898C45.8164 34.877 46 34.6933 46 34.4668C46 34.2403 45.8164 34.0567 45.5898 34.0567ZM33.832 21.143L43.2921 22.1821C43.4867 22.2134 43.6325 22.3802 43.6325 22.5724V24.0848H34.8331C34.2811 24.0848 33.832 23.6357 33.832 23.0837V21.143ZM32.8675 20.2752H27.9713C27.7448 20.2752 27.5612 20.4588 27.5612 20.6854C27.5612 20.9119 27.7448 21.0955 27.9713 21.0955H33.0117V23.0837C33.0117 24.088 33.8287 24.9052 34.8331 24.9052H43.6325V26.2407C42.9682 25.8691 42.2035 25.6563 41.3897 25.6563C38.8478 25.6563 36.7799 27.7241 36.7794 30.266H31.3148C31.5037 29.195 31.4579 28.0885 31.177 27.036C30.8411 25.7775 30.1741 24.6229 29.2481 23.6968C27.8809 22.3296 26.0637 21.5553 24.1311 21.5163C23.2524 21.499 22.3921 21.6343 21.5815 21.9093V21.0954H26.0391C26.2656 21.0954 26.4492 20.9118 26.4492 20.6852C26.4492 20.4587 26.2656 20.2751 26.0391 20.2751H25.1052V14.4723H31.0925L32.8675 20.2752ZM21.5815 20.2752V14.4723H24.2849V20.2752H21.5815ZM20.6335 13.6519C20.5581 13.6519 20.4968 13.5906 20.4968 13.5152V13.0801C20.4968 13.0047 20.5581 12.9434 20.6335 12.9434H31.9939C32.0692 12.9434 32.1306 13.0047 32.1306 13.0801V13.5152C32.1306 13.5906 32.0692 13.6519 31.9939 13.6519H20.6335ZM24.1147 22.3366C25.8343 22.3712 27.4515 23.0603 28.6681 24.277C29.4923 25.1011 30.0858 26.1284 30.3845 27.2476C30.647 28.2314 30.6794 29.2683 30.4808 30.266H29.876C29.9917 30.1353 30.0624 29.9639 30.0624 29.776V27.9156C30.0624 27.5271 29.7619 27.2075 29.381 27.1769C29.2808 26.8551 29.1509 26.5414 28.9942 26.2429C29.2418 25.952 29.2283 25.5136 28.9536 25.2389L27.6381 23.9234C27.3634 23.6487 26.9249 23.6351 26.6341 23.8828C26.3356 23.7261 26.0219 23.5962 25.7001 23.496C25.6695 23.1152 25.3498 22.8146 24.9613 22.8146H23.101C22.7125 22.8146 22.3929 23.1151 22.3623 23.496C22.0404 23.5962 21.7268 23.7261 21.4283 23.8828C21.1375 23.6352 20.699 23.6487 20.4242 23.9234L19.9717 24.3759L19.5915 23.9958C20.8393 22.8912 22.4405 22.3035 24.1147 22.3366ZM24.8863 34.0567H23.1761C23.1451 33.7614 22.9419 33.5135 22.6511 33.4261C22.3457 33.3344 22.0486 33.2113 21.7679 33.0604C21.5006 32.9165 21.1817 32.9483 20.9512 33.135L19.7419 31.9257C19.9287 31.6952 19.9603 31.3763 19.8166 31.109C19.6656 30.8282 19.5426 30.5311 19.4509 30.2258C19.3635 29.935 19.1156 29.7318 18.8203 29.7008V27.9906C19.1155 27.9596 19.3635 27.7565 19.4508 27.4656C19.5425 27.1602 19.6656 26.8631 19.8166 26.5824C19.9603 26.3151 19.9286 25.9963 19.7419 25.7657L20.9512 24.5564C21.1818 24.7432 21.5006 24.7748 21.7679 24.6311C22.0486 24.4802 22.3457 24.3571 22.6511 24.2654C22.9419 24.178 23.1451 23.9301 23.1761 23.6348H24.8863C24.9173 23.9301 25.1204 24.178 25.4113 24.2654C25.7166 24.3571 26.0137 24.4801 26.2945 24.6311C26.5618 24.7749 26.8805 24.7432 27.1112 24.5564L28.3205 25.7657C28.1337 25.9963 28.102 26.3152 28.2458 26.5824C28.3967 26.8631 28.5197 27.1603 28.6115 27.4656C28.6988 27.7565 28.9467 27.9596 29.2421 27.9906V29.7008C28.9468 29.7318 28.6988 29.935 28.6115 30.2259C28.5197 30.5312 28.3967 30.8283 28.2458 31.109C28.102 31.3763 28.1337 31.6951 28.3205 31.9257L27.1112 33.135C26.8806 32.9483 26.5618 32.9165 26.2945 33.0603C26.0137 33.2113 25.7166 33.3343 25.4113 33.426C25.1205 33.5135 24.9173 33.7614 24.8863 34.0567ZM26.09 34.0567C26.2756 33.9834 26.4578 33.9014 26.6341 33.8088C26.925 34.0565 27.3635 34.0429 27.6382 33.7682L28.9536 32.4527C29.2283 32.178 29.2419 31.7395 28.9943 31.4487C29.0564 31.3303 29.113 31.209 29.1666 31.0863H36.8539C37.075 32.313 37.7822 33.3722 38.7691 34.0567H26.09ZM37.5998 30.2667C37.5998 28.1768 39.3 26.4767 41.3897 26.4767C43.4796 26.4767 45.1797 28.1768 45.1797 30.2667C45.1797 32.3564 43.4796 34.0566 41.3897 34.0566C39.2999 34.0567 37.5998 32.3565 37.5998 30.2667Z" fill="black"/>
<path d="M32.8009 29.5711C33.0275 29.5711 33.2111 29.3874 33.2111 29.1609V27.1288C33.2111 26.9023 33.0275 26.7186 32.8009 26.7186C32.5743 26.7186 32.3907 26.9023 32.3907 27.1288V29.1609C32.3907 29.3874 32.5743 29.5711 32.8009 29.5711Z" fill="black"/>
<path d="M34.2404 29.5711C34.4669 29.5711 34.6505 29.3874 34.6505 29.1609V27.1288C34.6505 26.9023 34.4669 26.7186 34.2404 26.7186C34.0138 26.7186 33.8302 26.9023 33.8302 27.1288V29.1609C33.8302 29.3874 34.0138 29.5711 34.2404 29.5711Z" fill="black"/>
<path d="M35.6798 29.5711C35.9064 29.5711 36.09 29.3874 36.09 29.1609V27.1288C36.09 26.9023 35.9064 26.7186 35.6798 26.7186C35.4532 26.7186 35.2697 26.9023 35.2697 27.1288V29.1609C35.2697 29.3874 35.4533 29.5711 35.6798 29.5711Z" fill="black"/>
</g>
<path d="M72.784 32.5L80.272 15.7H84.112L91.624 32.5H87.544L81.4 17.668H82.936L76.768 32.5H72.784ZM76.528 28.9L77.56 25.948H86.2L87.256 28.9H76.528ZM101.245 32.788C99.9166 32.788 98.6926 32.58 97.5726 32.164C96.4686 31.732 95.5006 31.124 94.6686 30.34C93.8526 29.556 93.2126 28.636 92.7486 27.58C92.3006 26.524 92.0766 25.364 92.0766 24.1C92.0766 22.836 92.3006 21.676 92.7486 20.62C93.2126 19.564 93.8606 18.644 94.6926 17.86C95.5246 17.076 96.5006 16.476 97.6206 16.06C98.7406 15.628 99.9726 15.412 101.317 15.412C102.805 15.412 104.141 15.66 105.325 16.156C106.525 16.652 107.533 17.372 108.349 18.316L105.853 20.62C105.245 19.98 104.581 19.508 103.861 19.204C103.141 18.884 102.357 18.724 101.509 18.724C100.693 18.724 99.9486 18.852 99.2766 19.108C98.6046 19.364 98.0206 19.732 97.5246 20.212C97.0446 20.692 96.6686 21.26 96.3966 21.916C96.1406 22.572 96.0126 23.3 96.0126 24.1C96.0126 24.884 96.1406 25.604 96.3966 26.26C96.6686 26.916 97.0446 27.492 97.5246 27.988C98.0206 28.468 98.5966 28.836 99.2526 29.092C99.9246 29.348 100.661 29.476 101.461 29.476C102.229 29.476 102.973 29.356 103.693 29.116C104.429 28.86 105.141 28.436 105.829 27.844L108.037 30.652C107.125 31.34 106.061 31.868 104.845 32.236C103.645 32.604 102.445 32.788 101.245 32.788ZM104.485 30.148V23.836H108.037V30.652L104.485 30.148ZM111.648 32.5V15.7H118.92C120.424 15.7 121.72 15.948 122.808 16.444C123.896 16.924 124.736 17.62 125.328 18.532C125.92 19.444 126.216 20.532 126.216 21.796C126.216 23.044 125.92 24.124 125.328 25.036C124.736 25.932 123.896 26.62 122.808 27.1C121.72 27.58 120.424 27.82 118.92 27.82H113.808L115.536 26.116V32.5H111.648ZM122.328 32.5L118.128 26.404H122.28L126.528 32.5H122.328ZM115.536 26.548L113.808 24.724H118.704C119.904 24.724 120.8 24.468 121.392 23.956C121.984 23.428 122.28 22.708 122.28 21.796C122.28 20.868 121.984 20.148 121.392 19.636C120.8 19.124 119.904 18.868 118.704 18.868H113.808L115.536 17.02V26.548ZM137.457 32.788C136.129 32.788 134.897 32.572 133.761 32.14C132.641 31.708 131.665 31.1 130.833 30.316C130.017 29.532 129.377 28.612 128.913 27.556C128.465 26.5 128.241 25.348 128.241 24.1C128.241 22.852 128.465 21.7 128.913 20.644C129.377 19.588 130.025 18.668 130.857 17.884C131.689 17.1 132.665 16.492 133.785 16.06C134.905 15.628 136.121 15.412 137.433 15.412C138.761 15.412 139.977 15.628 141.081 16.06C142.201 16.492 143.169 17.1 143.985 17.884C144.817 18.668 145.465 19.588 145.929 20.644C146.393 21.684 146.625 22.836 146.625 24.1C146.625 25.348 146.393 26.508 145.929 27.58C145.465 28.636 144.817 29.556 143.985 30.34C143.169 31.108 142.201 31.708 141.081 32.14C139.977 32.572 138.769 32.788 137.457 32.788ZM137.433 29.476C138.185 29.476 138.873 29.348 139.497 29.092C140.137 28.836 140.697 28.468 141.177 27.988C141.657 27.508 142.025 26.94 142.281 26.284C142.553 25.628 142.689 24.9 142.689 24.1C142.689 23.3 142.553 22.572 142.281 21.916C142.025 21.26 141.657 20.692 141.177 20.212C140.713 19.732 140.161 19.364 139.521 19.108C138.881 18.852 138.185 18.724 137.433 18.724C136.681 18.724 135.985 18.852 135.345 19.108C134.721 19.364 134.169 19.732 133.689 20.212C133.209 20.692 132.833 21.26 132.561 21.916C132.305 22.572 132.177 23.3 132.177 24.1C132.177 24.884 132.305 25.612 132.561 26.284C132.833 26.94 133.201 27.508 133.665 27.988C134.145 28.468 134.705 28.836 135.345 29.092C135.985 29.348 136.681 29.476 137.433 29.476ZM156.344 32.5V15.7H159.56L166.712 27.556H165.008L172.04 15.7H175.232L175.28 32.5H171.632L171.608 21.292H172.28L166.664 30.724H164.912L159.176 21.292H159.992V32.5H156.344ZM177.057 32.5L184.545 15.7H188.385L195.897 32.5H191.817L185.673 17.668H187.209L181.041 32.5H177.057ZM180.801 28.9L181.833 25.948H190.473L191.529 28.9H180.801ZM197.64 32.5V15.7H204.912C206.416 15.7 207.712 15.948 208.8 16.444C209.888 16.924 210.728 17.62 211.32 18.532C211.912 19.444 212.208 20.532 212.208 21.796C212.208 23.044 211.912 24.124 211.32 25.036C210.728 25.932 209.888 26.62 208.8 27.1C207.712 27.58 206.416 27.82 204.912 27.82H199.8L201.528 26.116V32.5H197.64ZM208.32 32.5L204.12 26.404H208.272L212.52 32.5H208.32ZM201.528 26.548L199.8 24.724H204.696C205.896 24.724 206.792 24.468 207.384 23.956C207.976 23.428 208.272 22.708 208.272 21.796C208.272 20.868 207.976 20.148 207.384 19.636C206.792 19.124 205.896 18.868 204.696 18.868H199.8L201.528 17.02V26.548ZM220.809 32.788C219.465 32.788 218.177 32.612 216.945 32.26C215.713 31.892 214.721 31.42 213.969 30.844L215.289 27.916C216.009 28.428 216.857 28.852 217.833 29.188C218.825 29.508 219.825 29.668 220.833 29.668C221.601 29.668 222.217 29.596 222.681 29.452C223.161 29.292 223.513 29.076 223.737 28.804C223.961 28.532 224.073 28.22 224.073 27.868C224.073 27.42 223.897 27.068 223.545 26.812C223.193 26.54 222.729 26.324 222.153 26.164C221.577 25.988 220.937 25.828 220.233 25.684C219.545 25.524 218.849 25.332 218.145 25.108C217.457 24.884 216.825 24.596 216.249 24.244C215.673 23.892 215.201 23.428 214.833 22.852C214.481 22.276 214.305 21.54 214.305 20.644C214.305 19.684 214.561 18.812 215.073 18.028C215.601 17.228 216.385 16.596 217.425 16.132C218.481 15.652 219.801 15.412 221.385 15.412C222.441 15.412 223.481 15.54 224.505 15.796C225.529 16.036 226.433 16.404 227.217 16.9L226.017 19.852C225.233 19.404 224.449 19.076 223.665 18.868C222.881 18.644 222.113 18.532 221.361 18.532C220.609 18.532 219.993 18.62 219.513 18.796C219.033 18.972 218.689 19.204 218.481 19.492C218.273 19.764 218.169 20.084 218.169 20.452C218.169 20.884 218.345 21.236 218.697 21.508C219.049 21.764 219.513 21.972 220.089 22.132C220.665 22.292 221.297 22.452 221.985 22.612C222.689 22.772 223.385 22.956 224.073 23.164C224.777 23.372 225.417 23.652 225.993 24.004C226.569 24.356 227.033 24.82 227.385 25.396C227.753 25.972 227.937 26.7 227.937 27.58C227.937 28.524 227.673 29.388 227.145 30.172C226.617 30.956 225.825 31.588 224.769 32.068C223.729 32.548 222.409 32.788 220.809 32.788Z" fill="black"/>
<defs>
<clipPath id="clip0_25_43">
<rect width="55" height="47" fill="white" transform="translate(0 0.5)"/>
</clipPath>
</defs>
</svg>
