<svg width="235" height="34" viewBox="0 0 235 34" fill="none" xmlns="http://www.w3.org/2000/svg">
<g clip-path="url(#clip0_154_110)">
<path d="M6.25372 15.8293C6.50537 12.5018 7.82255 9.34395 10.01 6.82388C12.1974 4.30381 15.1387 2.55568 18.3978 1.83863C21.6568 1.12158 25.0602 1.47378 28.1034 2.84303C31.1465 4.21228 33.6675 6.52568 35.2925 9.4403C36.9175 12.3549 37.5601 15.7156 37.125 19.0241C36.6899 22.3326 35.2003 25.4129 32.877 27.8083C30.5537 30.2037 27.5203 31.7866 24.2266 32.3225C20.9329 32.8584 17.5542 32.3188 14.5913 30.7835" stroke="white" stroke-width="1.37991"/>
<path d="M9.17748 30.6224C10.3324 31.8107 12.5344 31.81 13.491 31.6612C12.4056 28.264 9.19132 28.3493 7.71983 28.8165C7.72451 28.9233 8.02258 29.434 9.17748 30.6224Z" fill="#B98500" stroke="#715200" stroke-width="0.689956"/>
<path d="M5.74754 26.6544C6.93977 27.8052 9.14062 27.7343 10.092 27.5549C8.89876 24.1941 5.68881 24.382 4.233 24.896C4.24108 25.0026 4.5553 25.5035 5.74754 26.6544Z" fill="#B98500" stroke="#715200" stroke-width="0.689956"/>
<path d="M1.87206 22.0342C2.82747 23.3881 5.00261 23.7309 5.97075 23.733C5.42856 20.2082 2.24029 19.791 0.713936 20.0231C0.701893 20.1293 0.916657 20.6802 1.87206 22.0342Z" fill="#B98500" stroke="#715200" stroke-width="0.689956"/>
<path d="M12.0026 28.694C10.8142 27.5392 10.8148 25.3372 10.9636 24.3806C14.3609 25.4658 14.2757 28.6801 13.8085 30.1516C13.7017 30.1469 13.191 29.8489 12.0026 28.694Z" fill="#B98500" stroke="#715200" stroke-width="0.689956"/>
<path d="M8.24081 23.9069C7.01616 22.7906 6.94645 20.5897 7.06467 19.6288C10.4948 20.605 10.5123 23.8204 10.0923 25.3061C9.98542 25.3048 9.46545 25.0232 8.24081 23.9069Z" fill="#B98500" stroke="#715200" stroke-width="0.689956"/>
<path d="M4.49662 20.0468C3.50291 18.7207 3.84693 16.5458 4.14316 15.6241C7.32953 17.2259 6.7441 20.3876 6.05309 21.7682C5.94831 21.7469 5.49033 21.3729 4.49662 20.0468Z" fill="#B98500" stroke="#715200" stroke-width="0.689956"/>
<g clip-path="url(#clip1_154_110)">
<path d="M18.2326 18.6913C17.3217 17.7804 15.8394 17.7804 14.9286 18.6913C14.0176 19.6023 14.0176 21.0845 14.9286 21.9954C15.384 22.4508 15.9823 22.6786 16.5806 22.6786C17.1789 22.6786 17.7771 22.4508 18.2326 21.9954C19.1435 21.0845 19.1435 19.6023 18.2326 18.6913ZM15.3287 21.5952C14.6385 20.9049 14.6385 19.7818 15.3287 19.0915C15.6739 18.7464 16.1272 18.5738 16.5806 18.5738C17.0339 18.5738 17.4873 18.7464 17.8324 19.0915C18.5226 19.7818 18.5226 20.9049 17.8324 21.5952C17.1421 22.2855 16.019 22.2855 15.3287 21.5952Z" fill="white"/>
<path d="M17.5844 19.3394C17.0308 18.7857 16.1299 18.7857 15.5763 19.3394C15.0227 19.893 15.0227 20.7938 15.5763 21.3474C15.8531 21.6242 16.2168 21.7626 16.5803 21.7626C16.9439 21.7626 17.3076 21.6242 17.5844 21.3474C18.138 20.7938 18.138 19.893 17.5844 19.3394ZM17.1842 20.9472C16.8513 21.2801 16.3095 21.2801 15.9766 20.9472C15.6436 20.6143 15.6436 20.0725 15.9766 19.7395C16.143 19.5731 16.3617 19.4898 16.5804 19.4898C16.799 19.4898 17.0177 19.5731 17.1842 19.7395C17.5171 20.0725 17.5171 20.6143 17.1842 20.9472Z" fill="white"/>
<path d="M30.1003 20.9416C30.2429 20.8776 30.3066 20.7101 30.2425 20.5675C29.9449 19.905 29.2834 19.4769 28.5572 19.4769C27.5389 19.4769 26.7104 20.3054 26.7104 21.3237C26.7104 22.342 27.5389 23.1705 28.5572 23.1705C29.2589 23.1705 29.8911 22.7811 30.2071 22.1542C30.2775 22.0146 30.2214 21.8445 30.0819 21.7741C29.9423 21.7038 29.7721 21.7598 29.7018 21.8994C29.4825 22.3343 29.0439 22.6045 28.5572 22.6045C27.851 22.6045 27.2765 22.03 27.2765 21.3237C27.2765 20.6175 27.851 20.0429 28.5572 20.0429C29.061 20.0429 29.5198 20.3399 29.7263 20.7995C29.7903 20.942 29.9577 21.0056 30.1003 20.9416Z" fill="white"/>
<path d="M28.5571 20.3362C28.0126 20.3362 27.5696 20.7792 27.5696 21.3237C27.5696 21.8682 28.0126 22.3112 28.5571 22.3112C29.1016 22.3112 29.5446 21.8682 29.5446 21.3237C29.5446 20.7792 29.1016 20.3362 28.5571 20.3362ZM28.5571 21.7453C28.3247 21.7453 28.1356 21.5562 28.1356 21.3238C28.1356 21.0913 28.3247 20.9023 28.5571 20.9023C28.7895 20.9023 28.9786 21.0913 28.9786 21.3238C28.9786 21.5562 28.7895 21.7453 28.5571 21.7453Z" fill="white"/>
<path d="M31.455 23.9387H30.3652C31.1939 23.3639 31.738 22.4064 31.738 21.3237C31.738 20.3804 31.3248 19.5322 30.6705 18.9491V16.015C30.6705 15.602 30.3596 15.2452 29.9473 15.185C29.944 15.1845 29.9406 15.1841 29.9373 15.1837L28.1728 14.99V14.5043C28.1728 14.348 28.0462 14.2213 27.8898 14.2213C27.7335 14.2213 27.6068 14.348 27.6068 14.5043V14.9278L26.8256 14.842V12.6243C26.8256 12.5723 26.8679 12.53 26.9199 12.53H27.5125C27.5645 12.53 27.6068 12.5723 27.6068 12.6243V13.146C27.6068 13.3022 27.7335 13.4289 27.8898 13.4289C28.0462 13.4289 28.1728 13.3022 28.1728 13.146V12.6243C28.1728 12.2648 27.8839 11.972 27.5261 11.9647V10.3034L27.8802 10.0378C28.0053 9.94402 28.0306 9.7666 27.9368 9.6416C27.843 9.51652 27.6656 9.49124 27.5407 9.585L27.0733 9.93553C27.002 9.989 26.9601 10.0729 26.9601 10.1619V11.964H26.9199C26.5559 11.964 26.2596 12.2602 26.2596 12.6243V14.7798L23.2757 14.4521L22.0443 10.4263H22.0744C22.4385 10.4263 22.7347 10.13 22.7347 9.76596V9.46573C22.7347 9.10165 22.4384 8.80542 22.0744 8.80542H14.2362C13.8721 8.80542 13.5759 9.10165 13.5759 9.46573V9.76596C13.5759 10.13 13.8721 10.4263 14.2362 10.4263H14.3243V15.7883C13.8721 16.0051 13.4501 16.2893 13.072 16.6364C12.9754 16.7251 12.9183 16.8515 12.9155 16.983C12.9127 17.1154 12.9648 17.2451 13.0584 17.3387L13.3793 17.6596L13.1842 17.8548C12.9946 18.0443 12.9853 18.3468 13.1561 18.5475C13.0481 18.7534 12.9584 18.9699 12.8893 19.1919C12.6266 19.213 12.4192 19.4335 12.4192 19.7016V20.9852C12.4192 21.2532 12.6265 21.4737 12.8893 21.4948C12.9585 21.7169 13.0481 21.9333 13.1562 22.1393C12.9853 22.34 12.9947 22.6425 13.1842 22.832L14.0918 23.7396C14.2813 23.9291 14.5839 23.9385 14.7846 23.7677C14.9063 23.8315 15.0319 23.8881 15.16 23.9387H12.7022C12.5459 23.9387 12.4192 24.0654 12.4192 24.2217C12.4192 24.3779 12.5459 24.5046 12.7022 24.5046H31.455C31.6113 24.5046 31.738 24.3779 31.738 24.2217C31.738 24.0654 31.6113 23.9387 31.455 23.9387ZM23.3426 15.0288L29.8697 15.7457C30.0039 15.7673 30.1045 15.8824 30.1045 16.015V17.0585H24.0333C23.6524 17.0585 23.3426 16.7487 23.3426 16.3678V15.0288ZM22.6771 14.4301H19.299C19.1427 14.4301 19.016 14.5568 19.016 14.713C19.016 14.8693 19.1427 14.996 19.299 14.996H22.7766V16.3678C22.7766 17.0607 23.3403 17.6245 24.0333 17.6245H30.1045V18.546C29.6461 18.2896 29.1185 18.1428 28.557 18.1428C26.8033 18.1428 25.3765 19.5695 25.3762 21.3232H21.6058C21.7361 20.5843 21.7045 19.8209 21.5107 19.0947C21.279 18.2264 20.8188 17.4298 20.1799 16.7908C19.2366 15.8475 17.9828 15.3132 16.6494 15.2864C16.0431 15.2744 15.4495 15.3678 14.8903 15.5575V14.996H17.9658C18.1221 14.996 18.2488 14.8693 18.2488 14.713C18.2488 14.5567 18.1221 14.43 17.9658 14.43H17.3214V10.4263H21.4525L22.6771 14.4301ZM14.8903 14.4301V10.4263H16.7555V14.4301H14.8903ZM14.2362 9.86029C14.1842 9.86029 14.1418 9.81796 14.1418 9.76596V9.46573C14.1418 9.41373 14.1842 9.3714 14.2362 9.3714H22.0744C22.1263 9.3714 22.1687 9.41373 22.1687 9.46573V9.76596C22.1687 9.81796 22.1263 9.86029 22.0744 9.86029H14.2362ZM16.638 15.8523C17.8245 15.8762 18.9403 16.3516 19.7797 17.1911C20.3483 17.7597 20.7578 18.4685 20.9639 19.2407C21.1451 19.9195 21.1674 20.6349 21.0304 21.3233H20.6131C20.6929 21.2331 20.7417 21.1148 20.7417 20.9852V19.7016C20.7417 19.4336 20.5344 19.213 20.2716 19.1919C20.2024 18.9699 20.1128 18.7534 20.0047 18.5475C20.1756 18.3468 20.1662 18.0443 19.9767 17.8548L19.0691 16.9472C18.8795 16.7576 18.577 16.7483 18.3763 16.9191C18.1704 16.8111 17.954 16.7214 17.7319 16.6523C17.7108 16.3895 17.4903 16.1821 17.2222 16.1821H15.9387C15.6706 16.1821 15.4501 16.3895 15.429 16.6523C15.2069 16.7214 14.9905 16.811 14.7846 16.9191C14.5839 16.7483 14.2814 16.7576 14.0918 16.9472L13.7796 17.2594L13.5173 16.9971C14.3782 16.235 15.4829 15.8295 16.638 15.8523ZM17.1704 23.9387H15.9905C15.9691 23.7349 15.8289 23.5639 15.6282 23.5036C15.4176 23.4403 15.2126 23.3554 15.0189 23.2513C14.8345 23.152 14.6144 23.1739 14.4554 23.3028L13.621 22.4684C13.7499 22.3093 13.7717 22.0893 13.6725 21.9049C13.5684 21.7112 13.4835 21.5062 13.4202 21.2955C13.3599 21.0949 13.1889 20.9547 12.9851 20.9333V19.7534C13.1888 19.732 13.3599 19.5918 13.4202 19.3911C13.4835 19.1804 13.5684 18.9754 13.6725 18.7818C13.7717 18.5973 13.7498 18.3773 13.621 18.2183L14.4554 17.3839C14.6145 17.5128 14.8345 17.5346 15.0188 17.4354C15.2126 17.3313 15.4176 17.2464 15.6282 17.1831C15.8289 17.1228 15.9691 16.9518 15.9904 16.748H17.1704C17.1918 16.9518 17.332 17.1228 17.5327 17.1831C17.7433 17.2464 17.9483 17.3313 18.142 17.4354C18.3264 17.5346 18.5464 17.5128 18.7055 17.3839L19.5399 18.2183C19.411 18.3774 19.3892 18.5974 19.4883 18.7818C19.5925 18.9754 19.6774 19.1805 19.7406 19.3911C19.8009 19.5918 19.972 19.7319 20.1757 19.7534V20.9333C19.972 20.9547 19.8009 21.0949 19.7406 21.2956C19.6774 21.5062 19.5925 21.7112 19.4883 21.9049C19.3892 22.0893 19.411 22.3093 19.5399 22.4684L18.7055 23.3028C18.5464 23.1739 18.3264 23.152 18.142 23.2512C17.9483 23.3554 17.7433 23.4403 17.5327 23.5035C17.332 23.5639 17.1918 23.7349 17.1704 23.9387ZM18.001 23.9387C18.129 23.8881 18.2547 23.8315 18.3764 23.7677C18.577 23.9385 18.8796 23.9292 19.0691 23.7396L19.9767 22.832C20.1662 22.6425 20.1756 22.3399 20.0048 22.1393C20.0476 22.0576 20.0867 21.9739 20.1236 21.8893H25.4276C25.5801 22.7356 26.0681 23.4664 26.749 23.9387H18.001ZM25.9422 21.3237C25.9422 19.8818 27.1152 18.7088 28.5571 18.7088C29.999 18.7088 31.172 19.8818 31.172 21.3237C31.172 22.7656 29.999 23.9386 28.5571 23.9386C27.1152 23.9387 25.9422 22.7656 25.9422 21.3237Z" fill="white"/>
<path d="M22.6311 20.8438C22.7875 20.8438 22.9141 20.7171 22.9141 20.5608V19.1587C22.9141 19.0024 22.7875 18.8757 22.6311 18.8757C22.4748 18.8757 22.3481 19.0024 22.3481 19.1587V20.5608C22.3481 20.7171 22.4748 20.8438 22.6311 20.8438Z" fill="white"/>
<path d="M23.6243 20.8438C23.7806 20.8438 23.9073 20.7171 23.9073 20.5608V19.1587C23.9073 19.0024 23.7806 18.8757 23.6243 18.8757C23.468 18.8757 23.3413 19.0024 23.3413 19.1587V20.5608C23.3413 20.7171 23.468 20.8438 23.6243 20.8438Z" fill="white"/>
<path d="M24.6175 20.8438C24.7738 20.8438 24.9005 20.7171 24.9005 20.5608V19.1587C24.9005 19.0024 24.7738 18.8757 24.6175 18.8757C24.4611 18.8757 24.3345 19.0024 24.3345 19.1587V20.5608C24.3345 20.7171 24.4612 20.8438 24.6175 20.8438Z" fill="white"/>
</g>
</g>
<path d="M50.2179 23L55.3843 11.4087H58.0337L63.2167 23H60.4017L56.1626 12.7666H57.2224L52.9667 23H50.2179ZM52.8011 20.5162L53.5131 18.4794H59.4744L60.203 20.5162H52.8011ZM69.8545 23.1987C68.9382 23.1987 68.0937 23.0552 67.321 22.7682C66.5593 22.4701 65.8914 22.0506 65.3173 21.5097C64.7543 20.9688 64.3128 20.334 63.9926 19.6054C63.6835 18.8768 63.529 18.0765 63.529 17.2044C63.529 16.3323 63.6835 15.5319 63.9926 14.8033C64.3128 14.0747 64.7599 13.44 65.3339 12.899C65.908 12.3581 66.5813 11.9441 67.3541 11.6571C68.1269 11.3591 68.9769 11.21 69.9042 11.21C70.9308 11.21 71.8526 11.3811 72.6695 11.7234C73.4975 12.0656 74.1929 12.5623 74.756 13.2137L73.0338 14.8033C72.6143 14.3617 72.1562 14.0361 71.6594 13.8263C71.1627 13.6056 70.6217 13.4952 70.0367 13.4952C69.4736 13.4952 68.9603 13.5835 68.4967 13.7601C68.033 13.9367 67.6301 14.1906 67.2879 14.5218C66.9567 14.853 66.6973 15.2449 66.5096 15.6975C66.333 16.1501 66.2446 16.6524 66.2446 17.2044C66.2446 17.7453 66.333 18.2421 66.5096 18.6947C66.6973 19.1473 66.9567 19.5447 67.2879 19.8869C67.6301 20.2181 68.0275 20.472 68.4801 20.6486C68.9438 20.8253 69.4516 20.9136 70.0035 20.9136C70.5334 20.9136 71.0467 20.8308 71.5435 20.6652C72.0513 20.4886 72.5426 20.196 73.0173 19.7876L74.5407 21.725C73.9114 22.1997 73.1773 22.5639 72.3383 22.8179C71.5104 23.0718 70.6824 23.1987 69.8545 23.1987ZM72.09 21.3772V17.0222H74.5407V21.725L72.09 21.3772ZM77.0325 23V11.4087H82.0499C83.0876 11.4087 83.9818 11.5798 84.7325 11.9221C85.4831 12.2532 86.0627 12.7334 86.4712 13.3627C86.8796 13.9919 87.0838 14.7426 87.0838 15.6147C87.0838 16.4758 86.8796 17.2209 86.4712 17.8502C86.0627 18.4684 85.4831 18.9431 84.7325 19.2742C83.9818 19.6054 83.0876 19.771 82.0499 19.771H78.5229L79.7151 18.5953V23H77.0325ZM84.4013 23L81.5035 18.794H84.3682L87.2991 23H84.4013ZM79.7151 18.8934L78.5229 17.6349H81.9009C82.7288 17.6349 83.347 17.4583 83.7555 17.105C84.1639 16.7407 84.3682 16.2439 84.3682 15.6147C84.3682 14.9744 84.1639 14.4777 83.7555 14.1244C83.347 13.7711 82.7288 13.5945 81.9009 13.5945H78.5229L79.7151 12.3195V18.8934ZM94.8392 23.1987C93.923 23.1987 93.073 23.0497 92.2892 22.7516C91.5164 22.4536 90.843 22.0341 90.269 21.4931C89.706 20.9522 89.2644 20.3174 88.9443 19.5889C88.6352 18.8603 88.4806 18.0654 88.4806 17.2044C88.4806 16.3433 88.6352 15.5485 88.9443 14.8199C89.2644 14.0913 89.7115 13.4565 90.2855 12.9156C90.8596 12.3747 91.533 11.9552 92.3057 11.6571C93.0785 11.3591 93.9175 11.21 94.8227 11.21C95.7389 11.21 96.5779 11.3591 97.3396 11.6571C98.1124 11.9552 98.7803 12.3747 99.3433 12.9156C99.9173 13.4565 100.364 14.0913 100.685 14.8199C101.005 15.5374 101.165 16.3323 101.165 17.2044C101.165 18.0654 101.005 18.8658 100.685 19.6054C100.364 20.334 99.9173 20.9688 99.3433 21.5097C98.7803 22.0396 98.1124 22.4536 97.3396 22.7516C96.5779 23.0497 95.7445 23.1987 94.8392 23.1987ZM94.8227 20.9136C95.3415 20.9136 95.8162 20.8253 96.2468 20.6486C96.6883 20.472 97.0747 20.2181 97.4059 19.8869C97.7371 19.5557 97.991 19.1638 98.1676 18.7112C98.3553 18.2586 98.4491 17.7563 98.4491 17.2044C98.4491 16.6524 98.3553 16.1501 98.1676 15.6975C97.991 15.2449 97.7371 14.853 97.4059 14.5218C97.0857 14.1906 96.7049 13.9367 96.2633 13.7601C95.8217 13.5835 95.3415 13.4952 94.8227 13.4952C94.3038 13.4952 93.8236 13.5835 93.3821 13.7601C92.9515 13.9367 92.5707 14.1906 92.2395 14.5218C91.9083 14.853 91.6489 15.2449 91.4612 15.6975C91.2846 16.1501 91.1963 16.6524 91.1963 17.2044C91.1963 17.7453 91.2846 18.2476 91.4612 18.7112C91.6489 19.1638 91.9028 19.5557 92.2229 19.8869C92.5541 20.2181 92.9405 20.472 93.3821 20.6486C93.8236 20.8253 94.3038 20.9136 94.8227 20.9136ZM107.87 23V11.4087H110.089L115.024 19.5889H113.848L118.7 11.4087H120.902L120.935 23H118.418L118.402 15.267H118.866L114.991 21.7746H113.782L109.824 15.267H110.387V23H107.87ZM122.162 23L127.328 11.4087H129.978L135.161 23H132.346L128.107 12.7666H129.166L124.911 23H122.162ZM124.745 20.5162L125.457 18.4794H131.418L132.147 20.5162H124.745ZM136.363 23V11.4087H141.381C142.418 11.4087 143.313 11.5798 144.063 11.9221C144.814 12.2532 145.394 12.7334 145.802 13.3627C146.21 13.9919 146.415 14.7426 146.415 15.6147C146.415 16.4758 146.21 17.2209 145.802 17.8502C145.394 18.4684 144.814 18.9431 144.063 19.2742C143.313 19.6054 142.418 19.771 141.381 19.771H137.854L139.046 18.5953V23H136.363ZM143.732 23L140.834 18.794H143.699L146.63 23H143.732ZM139.046 18.8934L137.854 17.6349H141.232C142.06 17.6349 142.678 17.4583 143.086 17.105C143.495 16.7407 143.699 16.2439 143.699 15.6147C143.699 14.9744 143.495 14.4777 143.086 14.1244C142.678 13.7711 142.06 13.5945 141.232 13.5945H137.854L139.046 12.3195V18.8934ZM152.349 23.1987C151.421 23.1987 150.533 23.0773 149.683 22.8344C148.833 22.5805 148.148 22.2548 147.629 21.8574L148.54 19.8372C149.037 20.1905 149.622 20.483 150.295 20.7149C150.98 20.9357 151.67 21.046 152.365 21.046C152.895 21.046 153.32 20.9964 153.64 20.897C153.971 20.7866 154.214 20.6376 154.369 20.4499C154.523 20.2623 154.601 20.047 154.601 19.8041C154.601 19.495 154.479 19.2522 154.236 19.0755C153.993 18.8879 153.673 18.7388 153.276 18.6284C152.879 18.507 152.437 18.3966 151.951 18.2973C151.477 18.1869 150.996 18.0544 150.511 17.8998C150.036 17.7453 149.6 17.5466 149.202 17.3037C148.805 17.0609 148.479 16.7407 148.225 16.3433C147.983 15.9459 147.861 15.4381 147.861 14.8199C147.861 14.1575 148.038 13.5559 148.391 13.015C148.755 12.463 149.296 12.0269 150.014 11.7068C150.742 11.3756 151.653 11.21 152.746 11.21C153.475 11.21 154.192 11.2983 154.899 11.475C155.605 11.6406 156.229 11.8945 156.77 12.2367L155.942 14.2734C155.401 13.9643 154.86 13.738 154.319 13.5945C153.778 13.44 153.248 13.3627 152.729 13.3627C152.211 13.3627 151.786 13.4234 151.454 13.5448C151.123 13.6663 150.886 13.8263 150.742 14.025C150.599 14.2127 150.527 14.4335 150.527 14.6874C150.527 14.9855 150.649 15.2283 150.891 15.416C151.134 15.5926 151.454 15.7361 151.852 15.8465C152.249 15.9569 152.685 16.0673 153.16 16.1777C153.646 16.2881 154.126 16.4151 154.601 16.5586C155.086 16.7021 155.528 16.8953 155.925 17.1381C156.323 17.381 156.643 17.7011 156.886 18.0986C157.14 18.496 157.267 18.9983 157.267 19.6054C157.267 20.2567 157.084 20.8529 156.72 21.3938C156.356 21.9347 155.809 22.3708 155.081 22.7019C154.363 23.0331 153.453 23.1987 152.349 23.1987Z" fill="white"/>
<defs>
<clipPath id="clip0_154_110">
<rect width="37.9476" height="32.4279" fill="white" transform="translate(0 0.786011)"/>
</clipPath>
<clipPath id="clip1_154_110">
<rect width="19.3188" height="19.3188" fill="white" transform="translate(12.4192 6.99564)"/>
</clipPath>
</defs>
</svg>
