<svg width="72" height="72" viewBox="0 0 72 72" fill="none" xmlns="http://www.w3.org/2000/svg">
<path d="M62.8623 26.4129V33.0429C62.8623 33.6397 62.6252 34.212 62.2033 34.6339C61.7813 35.0559 61.209 35.2929 60.6123 35.2929C60.0155 35.2929 59.4432 35.0559 59.0213 34.6339C58.5993 34.212 58.3623 33.6397 58.3623 33.0429V26.4129C58.3814 25.6348 58.2489 24.8605 57.9723 24.1329L36.0723 37.2729V61.8429C36.4183 61.7409 36.7483 61.601 37.0623 61.423L44.6523 57.2229C45.1677 56.9514 45.7683 56.8903 46.3278 57.0525C46.8874 57.2148 47.3621 57.5878 47.6523 58.0929C47.9214 58.6119 47.9779 59.2153 47.81 59.7753C47.642 60.3352 47.2626 60.8078 46.7523 61.0929L39.1923 65.2929C37.5319 66.2177 35.6628 66.703 33.7623 66.703C31.8617 66.703 29.9927 66.2177 28.3323 65.2929L10.3323 55.393C8.59522 54.4077 7.14832 52.9822 6.13717 51.2601C5.12602 49.538 4.58628 47.5799 4.57227 45.5829V26.4129C4.57227 24.4059 5.11227 22.4379 6.13227 20.7129C6.30627 20.4029 6.50627 20.1129 6.73227 19.8429C6.83755 19.6817 6.9581 19.531 7.09227 19.3929C7.9663 18.2476 9.06985 17.2973 10.3323 16.6029L28.3323 6.67295C30.0005 5.77233 31.8665 5.30078 33.7623 5.30078C35.6581 5.30078 37.5241 5.77233 39.1923 6.67295L57.1923 16.6029C58.4553 17.2959 59.5593 18.2469 60.4323 19.3929L60.7923 19.8429C61.0203 20.1129 61.2203 20.4029 61.3923 20.7129C62.3948 22.4426 62.9033 24.4142 62.8623 26.4129Z" fill="black"/>
<path d="M55.5714 54.7928C55.0686 54.7984 54.5694 54.7067 54.1014 54.5228C53.6317 54.3124 53.2046 54.0175 52.8414 53.6528L48.6414 49.4528C48.428 49.2466 48.2583 48.9995 48.1424 48.7264C48.0265 48.4532 47.9668 48.1595 47.9668 47.8628C47.9668 47.566 48.0265 47.2723 48.1424 46.9992C48.2583 46.726 48.428 46.479 48.6414 46.2728C49.0633 45.8514 49.6352 45.6148 50.2314 45.6148C50.8277 45.6148 51.3996 45.8514 51.8214 46.2728L55.5714 50.0228L63.6414 41.9828C64.068 41.5853 64.6321 41.369 65.215 41.3793C65.7979 41.3895 66.3541 41.6257 66.7663 42.0379C67.1785 42.4502 67.4147 43.0063 67.425 43.5892C67.4352 44.1721 67.2189 44.7363 66.8214 45.1628L58.3014 53.6828C57.9516 54.0347 57.5329 54.3104 57.0714 54.4928C56.5987 54.6991 56.0871 54.8014 55.5714 54.7928Z" fill="black"/>
</svg>
