<svg width="72" height="72" viewBox="0 0 72 72" fill="none" xmlns="http://www.w3.org/2000/svg">
<path d="M62.8618 26.412V33.042C62.8618 33.6387 62.6247 34.211 62.2028 34.633C61.7808 35.0549 61.2085 35.292 60.6118 35.292C60.015 35.292 59.4427 35.0549 59.0208 34.633C58.5988 34.211 58.3618 33.6387 58.3618 33.042V26.412C58.3809 25.6339 58.2484 24.8595 57.9718 24.132L36.0718 37.272V61.842C36.4178 61.74 36.7478 61.6 37.0618 61.422L44.6518 57.222C45.1672 56.9504 45.7678 56.8893 46.3273 57.0516C46.8869 57.2138 47.3616 57.5868 47.6518 58.092C47.9209 58.611 47.9775 59.2143 47.8095 59.7743C47.6415 60.3342 47.2621 60.8068 46.7518 61.092L39.1918 65.292C37.5314 66.2167 35.6623 66.7021 33.7618 66.7021C31.8612 66.7021 29.9922 66.2167 28.3318 65.292L10.3318 55.392C8.59473 54.4067 7.14784 52.9813 6.13668 51.2591C5.12553 49.537 4.58579 47.579 4.57178 45.582V26.412C4.57178 24.405 5.11178 22.437 6.13178 20.712C6.30578 20.402 6.50578 20.112 6.73178 19.842C6.83706 19.6808 6.95762 19.5301 7.09178 19.392C7.96581 18.2466 9.06936 17.2963 10.3318 16.602L28.3318 6.67197C30 5.77135 31.866 5.2998 33.7618 5.2998C35.6576 5.2998 37.5236 5.77135 39.1918 6.67197L57.1918 16.602C58.4548 17.295 59.5588 18.246 60.4318 19.392L60.7918 19.842C61.0198 20.112 61.2198 20.402 61.3918 20.712C62.3943 22.4416 62.9028 24.4132 62.8618 26.412Z" fill="#BC8B0C"/>
<path d="M55.5719 54.792C55.0691 54.7977 54.5699 54.706 54.1019 54.522C53.6322 54.3117 53.2051 54.0168 52.8419 53.6521L48.6419 49.452C48.4285 49.2459 48.2588 48.9988 48.1429 48.7257C48.027 48.4525 47.9673 48.1588 47.9673 47.8621C47.9673 47.5653 48.027 47.2716 48.1429 46.9984C48.2588 46.7253 48.4285 46.4782 48.6419 46.272C49.0638 45.8507 49.6357 45.614 50.2319 45.614C50.8282 45.614 51.4 45.8507 51.8219 46.272L55.5719 50.022L63.6419 41.9821C64.0684 41.5846 64.6326 41.3682 65.2155 41.3785C65.7984 41.3888 66.3545 41.6249 66.7668 42.0372C67.179 42.4494 67.4152 43.0056 67.4254 43.5885C67.4357 44.1714 67.2194 44.7355 66.8219 45.162L58.3019 53.682C57.9521 54.0339 57.5334 54.3097 57.0719 54.492C56.5992 54.6983 56.0876 54.8007 55.5719 54.792Z" fill="#BC8B0C"/>
</svg>
