<svg width="72" height="72" viewBox="0 0 72 72" fill="none" xmlns="http://www.w3.org/2000/svg">
<path d="M36 63C32.284 63 28.784 62.29 25.5 60.87C22.216 59.448 19.356 57.518 16.92 55.08C14.484 52.642 12.554 49.782 11.13 46.5C9.70602 43.218 8.99602 39.718 9.00002 36C9.00002 32.272 9.71002 28.769 11.13 25.491C12.552 22.211 14.482 19.354 16.92 16.92C19.358 14.486 22.218 12.556 25.5 11.13C28.784 9.71 32.284 9 36 9C39.728 9 43.231 9.71 46.509 11.13C49.789 12.552 52.647 14.482 55.083 16.92C57.519 19.358 59.448 22.215 60.87 25.491C62.29 28.771 63 32.274 63 36C63 39.716 62.29 43.216 60.87 46.5C59.448 49.784 57.518 52.644 55.08 55.08C52.642 57.516 49.785 59.446 46.509 60.87C43.233 62.294 39.73 63.004 36 63ZM21 32.424C21.658 32.424 22.226 32.184 22.704 31.704C23.182 31.224 23.422 30.656 23.424 30C23.426 29.344 23.186 28.776 22.704 28.296C22.222 27.816 21.654 27.576 21 27.576C20.346 27.576 19.778 27.816 19.296 28.296C18.814 28.776 18.574 29.344 18.576 30C18.578 30.656 18.818 31.224 19.296 31.704C19.774 32.184 20.342 32.424 21 32.424ZM30 23.424C30.658 23.424 31.226 23.184 31.704 22.704C32.182 22.224 32.422 21.656 32.424 21C32.426 20.344 32.186 19.776 31.704 19.296C31.222 18.816 30.654 18.576 30 18.576C29.346 18.576 28.778 18.816 28.296 19.296C27.814 19.776 27.574 20.344 27.576 21C27.578 21.656 27.818 22.224 28.296 22.704C28.774 23.184 29.342 23.424 30 23.424ZM51 32.424C51.658 32.424 52.226 32.184 52.704 31.704C53.182 31.224 53.422 30.656 53.424 30C53.426 29.344 53.186 28.776 52.704 28.296C52.222 27.816 51.654 27.576 51 27.576C50.346 27.576 49.778 27.816 49.296 28.296C48.814 28.776 48.574 29.344 48.576 30C48.578 30.656 48.818 31.224 49.296 31.704C49.774 32.184 50.342 32.424 51 32.424ZM36 40.5C37.266 40.5 38.332 40.066 39.198 39.198C40.066 38.332 40.5 37.266 40.5 36C40.5 35.35 40.371 34.741 40.113 34.173C39.855 33.607 39.507 33.093 39.069 32.631L43.809 20.7C43.969 20.324 43.963 19.94 43.791 19.548C43.621 19.158 43.347 18.884 42.969 18.726C42.605 18.57 42.227 18.568 41.835 18.72C41.443 18.872 41.175 19.155 41.031 19.569L36.171 31.5C34.903 31.442 33.807 31.851 32.883 32.727C31.959 33.603 31.498 34.694 31.5 36C31.5 37.266 31.934 38.332 32.802 39.198C33.668 40.066 34.734 40.5 36 40.5ZM23.067 56.076C25.047 54.924 27.127 54.04 29.307 53.424C31.487 52.808 33.718 52.5 36 52.5C38.282 52.5 40.512 52.808 42.69 53.424C44.868 54.04 46.95 54.924 48.936 56.076L51.648 54.138C49.34 52.604 46.847 51.447 44.169 50.667C41.493 49.889 38.77 49.5 36 49.5C33.23 49.5 30.507 49.89 27.831 50.67C25.155 51.448 22.663 52.604 20.355 54.138L23.067 56.076Z" fill="black"/>
</svg>
