<svg width="73" height="72" viewBox="0 0 73 72" fill="none" xmlns="http://www.w3.org/2000/svg">
<path d="M36.6665 63C32.9505 63 29.4505 62.29 26.1665 60.87C22.8825 59.448 20.0225 57.518 17.5865 55.08C15.1505 52.642 13.2205 49.782 11.7965 46.5C10.3725 43.218 9.66252 39.718 9.66652 36C9.66652 32.272 10.3765 28.769 11.7965 25.491C13.2185 22.211 15.1485 19.354 17.5865 16.92C20.0245 14.486 22.8845 12.556 26.1665 11.13C29.4505 9.71 32.9505 9 36.6665 9C40.3945 9 43.8975 9.71 47.1755 11.13C50.4555 12.552 53.3135 14.482 55.7495 16.92C58.1855 19.358 60.1145 22.215 61.5365 25.491C62.9565 28.771 63.6665 32.274 63.6665 36C63.6665 39.716 62.9565 43.216 61.5365 46.5C60.1145 49.784 58.1845 52.644 55.7465 55.08C53.3085 57.516 50.4515 59.446 47.1755 60.87C43.8995 62.294 40.3965 63.004 36.6665 63ZM21.6665 32.424C22.3245 32.424 22.8925 32.184 23.3705 31.704C23.8485 31.224 24.0885 30.656 24.0905 30C24.0925 29.344 23.8525 28.776 23.3705 28.296C22.8885 27.816 22.3205 27.576 21.6665 27.576C21.0125 27.576 20.4445 27.816 19.9625 28.296C19.4805 28.776 19.2405 29.344 19.2425 30C19.2445 30.656 19.4845 31.224 19.9625 31.704C20.4405 32.184 21.0085 32.424 21.6665 32.424ZM30.6665 23.424C31.3245 23.424 31.8925 23.184 32.3705 22.704C32.8485 22.224 33.0885 21.656 33.0905 21C33.0925 20.344 32.8525 19.776 32.3705 19.296C31.8885 18.816 31.3205 18.576 30.6665 18.576C30.0125 18.576 29.4445 18.816 28.9625 19.296C28.4805 19.776 28.2405 20.344 28.2425 21C28.2445 21.656 28.4845 22.224 28.9625 22.704C29.4405 23.184 30.0085 23.424 30.6665 23.424ZM51.6665 32.424C52.3245 32.424 52.8925 32.184 53.3705 31.704C53.8485 31.224 54.0885 30.656 54.0905 30C54.0925 29.344 53.8525 28.776 53.3705 28.296C52.8885 27.816 52.3205 27.576 51.6665 27.576C51.0125 27.576 50.4445 27.816 49.9625 28.296C49.4805 28.776 49.2405 29.344 49.2425 30C49.2445 30.656 49.4845 31.224 49.9625 31.704C50.4405 32.184 51.0085 32.424 51.6665 32.424ZM36.6665 40.5C37.9325 40.5 38.9985 40.066 39.8645 39.198C40.7325 38.332 41.1665 37.266 41.1665 36C41.1665 35.35 41.0375 34.741 40.7795 34.173C40.5215 33.607 40.1735 33.093 39.7355 32.631L44.4755 20.7C44.6355 20.324 44.6295 19.94 44.4575 19.548C44.2875 19.158 44.0135 18.884 43.6355 18.726C43.2715 18.57 42.8935 18.568 42.5015 18.72C42.1095 18.872 41.8415 19.155 41.6975 19.569L36.8375 31.5C35.5695 31.442 34.4735 31.851 33.5495 32.727C32.6255 33.603 32.1645 34.694 32.1665 36C32.1665 37.266 32.6005 38.332 33.4685 39.198C34.3345 40.066 35.4005 40.5 36.6665 40.5ZM23.7335 56.076C25.7135 54.924 27.7935 54.04 29.9735 53.424C32.1535 52.808 34.3845 52.5 36.6665 52.5C38.9485 52.5 41.1785 52.808 43.3565 53.424C45.5345 54.04 47.6165 54.924 49.6025 56.076L52.3145 54.138C50.0065 52.604 47.5135 51.447 44.8355 50.667C42.1595 49.889 39.4365 49.5 36.6665 49.5C33.8965 49.5 31.1735 49.89 28.4975 50.67C25.8215 51.448 23.3295 52.604 21.0215 54.138L23.7335 56.076Z" fill="#BC8B0C"/>
</svg>
