<svg width="72" height="72" viewBox="0 0 72 72" fill="none" xmlns="http://www.w3.org/2000/svg">
<path d="M58.98 28.92L57.9 26.1L63.48 24C60.72 17.64 55.8 12.54 49.62 9.42L47.22 14.76L44.46 13.5L46.86 8.1C43.5 6.78 39.84 6 36 6C32.82 6 29.76 6.66 26.88 7.5L28.92 13.02L26.1 14.1L24 8.52C17.64 11.28 12.54 16.2 9.42 22.38L14.76 24.78L13.5 27.54L8.1 25.14C6.78 28.5 6 32.16 6 36C6 39.18 6.66 42.24 7.5 45.12L13.02 43.08L14.1 45.9L8.52 48C11.28 54.36 16.2 59.46 22.38 62.58L24.78 57.24L27.54 58.5L25.14 63.9C28.5 65.22 32.16 66 36 66C39.18 66 42.24 65.34 45.12 64.5L43.08 58.98L45.9 57.9L48 63.48C54.36 60.72 59.46 55.8 62.58 49.62L57.24 47.22L58.5 44.46L63.9 46.86C65.22 43.5 66 39.84 66 36C66 32.82 65.34 29.76 64.5 26.88L58.98 28.92ZM42.9 52.62C33.72 56.4 23.16 52.08 19.38 42.9C15.6 33.72 19.92 23.16 29.1 19.38C38.28 15.6 48.84 19.92 52.62 29.1C53.5312 31.282 54.0025 33.6224 54.0069 35.987C54.0113 38.3515 53.5486 40.6937 52.6455 42.879C51.7424 45.0643 50.4166 47.0498 48.7442 48.7214C47.0718 50.393 45.0857 51.7179 42.9 52.62Z" fill="black"/>
</svg>
