<svg width="73" height="72" viewBox="0 0 73 72" fill="none" xmlns="http://www.w3.org/2000/svg">
<path fill-rule="evenodd" clip-rule="evenodd" d="M28.6831 13.2451C19.1794 16.4391 12.3335 25.4201 12.3335 36C12.3335 37.6273 12.4954 39.2167 12.8041 40.7531L34.4963 34.9406L28.6831 13.2451ZM31.5813 12.4704L37.5235 34.6471L37.5352 34.6905C37.5852 34.8762 37.6557 35.1382 37.6867 35.3783C37.7257 35.6811 37.7348 36.1598 37.4531 36.6477C37.1714 37.1357 36.7522 37.3671 36.4706 37.4847C36.2471 37.578 35.985 37.6479 35.7992 37.6974L35.7558 37.709L13.5789 43.6513C16.7731 53.1545 25.7539 60 36.3335 60C49.5883 60 60.3335 49.2548 60.3335 36C60.3335 22.7452 49.5883 12 36.3335 12C34.7065 12 33.1174 12.1619 31.5813 12.4704Z" fill="#BC8B0C"/>
<path d="M29.0866 8.95408C28.8395 8.03215 28.716 7.57118 28.3332 7.36689C27.9505 7.16259 27.5189 7.30968 26.6557 7.60386C23.5671 8.6565 20.6665 10.2075 18.0707 12.1994C14.9451 14.5977 12.3226 17.5882 10.3527 21C8.38291 24.4118 7.10438 28.1783 6.59015 32.0842C6.16307 35.3282 6.27013 38.6157 6.90283 41.8169C7.07965 42.7115 7.16806 43.1588 7.53637 43.3881C7.90468 43.6175 8.36564 43.494 9.28757 43.2469L34.4016 36.5176C35.3123 36.2736 35.7677 36.1516 35.9748 35.7929C36.1819 35.4342 36.0599 34.9788 35.8159 34.0681L29.0866 8.95408Z" fill="#BC8B0C"/>
</svg>
