<svg width="72" height="72" viewBox="0 0 72 72" fill="none" xmlns="http://www.w3.org/2000/svg">
<path fill-rule="evenodd" clip-rule="evenodd" d="M28.3496 13.2451C18.8459 16.4391 12 25.4201 12 36C12 37.6273 12.1619 39.2167 12.4706 40.7531L34.1628 34.9406L28.3496 13.2451ZM31.2478 12.4704L37.19 34.6471L37.2017 34.6905C37.2517 34.8762 37.3222 35.1382 37.3532 35.3783C37.3922 35.6811 37.4013 36.1598 37.1196 36.6477C36.838 37.1357 36.4187 37.3671 36.1371 37.4847C35.9136 37.578 35.6515 37.6479 35.4657 37.6974L35.4223 37.709L13.2454 43.6513C16.4396 53.1545 25.4204 60 36 60C49.2548 60 60 49.2548 60 36C60 22.7452 49.2548 12 36 12C34.373 12 32.7839 12.1619 31.2478 12.4704Z" fill="black"/>
<path d="M28.7531 8.95408C28.506 8.03215 28.3825 7.57118 27.9998 7.36689C27.617 7.16259 27.1854 7.30968 26.3222 7.60386C23.2336 8.6565 20.333 10.2075 17.7372 12.1994C14.6116 14.5977 11.9891 17.5882 10.0192 21C8.04941 24.4118 6.77088 28.1783 6.25665 32.0842C5.82957 35.3282 5.93664 38.6157 6.56933 41.8169C6.74615 42.7115 6.83456 43.1588 7.20287 43.3881C7.57118 43.6175 8.03215 43.494 8.95408 43.2469L34.0681 36.5176C34.9788 36.2736 35.4342 36.1516 35.6413 35.7929C35.8484 35.4342 35.7264 34.9788 35.4824 34.0681L28.7531 8.95408Z" fill="black"/>
</svg>
