<svg width="72" height="72" viewBox="0 0 72 72" fill="none" xmlns="http://www.w3.org/2000/svg">
<mask id="path-1-outside-1_426_369" maskUnits="userSpaceOnUse" x="17" y="15" width="40" height="42" fill="black">
<rect fill="white" x="17" y="15" width="40" height="42"/>
<path d="M36 18.5C36 18.263 36 18.1445 36.0757 18.0709C36.1514 17.9973 36.2676 18.0005 36.5 18.0069C39.4864 18.0899 42.4081 18.9151 45 20.4115C47.7363 21.9914 50.0086 24.2637 51.5885 27C53.1683 29.7363 54 32.8403 54 36C54 39.1597 53.1683 42.2637 51.5885 45C50.0086 47.7363 47.7363 50.0086 45 51.5885C42.2637 53.1683 39.1597 54 36 54C32.8403 54 29.7363 53.1683 27 51.5885C24.4081 50.092 22.2326 47.9744 20.6675 45.4295C20.5458 45.2315 20.4849 45.1325 20.5108 45.0301C20.5367 44.9277 20.6393 44.8685 20.8446 44.75L35.75 36.1443C35.872 36.0739 35.933 36.0387 35.9665 35.9807C36 35.9226 36 35.8522 36 35.7113V18.5Z"/>
</mask>
<path d="M36 18.5C36 18.263 36 18.1445 36.0757 18.0709C36.1514 17.9973 36.2676 18.0005 36.5 18.0069C39.4864 18.0899 42.4081 18.9151 45 20.4115C47.7363 21.9914 50.0086 24.2637 51.5885 27C53.1683 29.7363 54 32.8403 54 36C54 39.1597 53.1683 42.2637 51.5885 45C50.0086 47.7363 47.7363 50.0086 45 51.5885C42.2637 53.1683 39.1597 54 36 54C32.8403 54 29.7363 53.1683 27 51.5885C24.4081 50.092 22.2326 47.9744 20.6675 45.4295C20.5458 45.2315 20.4849 45.1325 20.5108 45.0301C20.5367 44.9277 20.6393 44.8685 20.8446 44.75L35.75 36.1443C35.872 36.0739 35.933 36.0387 35.9665 35.9807C36 35.9226 36 35.8522 36 35.7113V18.5Z" fill="#B98500" fill-opacity="0.95"/>
<path d="M36 18.5C36 18.263 36 18.1445 36.0757 18.0709C36.1514 17.9973 36.2676 18.0005 36.5 18.0069C39.4864 18.0899 42.4081 18.9151 45 20.4115C47.7363 21.9914 50.0086 24.2637 51.5885 27C53.1683 29.7363 54 32.8403 54 36C54 39.1597 53.1683 42.2637 51.5885 45C50.0086 47.7363 47.7363 50.0086 45 51.5885C42.2637 53.1683 39.1597 54 36 54C32.8403 54 29.7363 53.1683 27 51.5885C24.4081 50.092 22.2326 47.9744 20.6675 45.4295C20.5458 45.2315 20.4849 45.1325 20.5108 45.0301C20.5367 44.9277 20.6393 44.8685 20.8446 44.75L35.75 36.1443C35.872 36.0739 35.933 36.0387 35.9665 35.9807C36 35.9226 36 35.8522 36 35.7113V18.5Z" stroke="#B98500" stroke-width="6" mask="url(#path-1-outside-1_426_369)"/>
<circle cx="36" cy="36" r="29" stroke="#B98500" stroke-width="4"/>
</svg>
