<svg width="72" height="72" viewBox="0 0 72 72" fill="none" xmlns="http://www.w3.org/2000/svg">
<g clip-path="url(#clip0_1408_233)">
<path d="M36 72C55.8823 72 72 55.8823 72 36C72 16.1177 55.8823 0 36 0C16.1177 0 0 16.1177 0 36C0 55.8823 16.1177 72 36 72Z" fill="#9B7000"/>
<path d="M36 70C54.7777 70 70 54.7777 70 36C70 17.2223 54.7777 2 36 2C17.2223 2 2 17.2223 2 36C2 54.7777 17.2223 70 36 70Z" fill="#BC8B0C"/>
<path d="M36 62C50.3594 62 62 50.3594 62 36C62 21.6406 50.3594 10 36 10C21.6406 10 10 21.6406 10 36C10 50.3594 21.6406 62 36 62Z" fill="#DFA101"/>
<path d="M36 58C48.1503 58 58 48.1503 58 36C58 23.8497 48.1503 14 36 14C23.8497 14 14 23.8497 14 36C14 48.1503 23.8497 58 36 58Z" fill="#BC8B0C"/>
<path d="M36 54C45.9411 54 54 45.9411 54 36C54 26.0589 45.9411 18 36 18C26.0589 18 18 26.0589 18 36C18 45.9411 26.0589 54 36 54Z" fill="white"/>
<path d="M36 48C42.6274 48 48 42.6274 48 36C48 29.3726 42.6274 24 36 24C29.3726 24 24 29.3726 24 36C24 42.6274 29.3726 48 36 48Z" fill="#BC8B0C"/>
<path d="M36 40C38.2091 40 40 38.2091 40 36C40 33.7909 38.2091 32 36 32C33.7909 32 32 33.7909 32 36C32 38.2091 33.7909 40 36 40Z" fill="#DFA101"/>
<path d="M36 38C37.1046 38 38 37.1046 38 36C38 34.8954 37.1046 34 36 34C34.8954 34 34 34.8954 34 36C34 37.1046 34.8954 38 36 38Z" fill="#9B7000"/>
<path d="M38.9391 43.4787C37.8711 41.5887 35.0551 41.1427 33.5871 42.8127C30.6451 46.8127 28.0851 51.0427 26.0711 55.6047C26.4005 55.774 26.7351 55.9354 27.0751 56.0887C29.3931 53.9987 31.4851 51.7247 33.4551 49.3367H38.5451C40.5171 51.7227 42.6071 53.9927 44.9231 56.0847C45.2631 55.9314 45.5985 55.7694 45.9291 55.5987C44.0311 51.2967 41.5951 47.3547 38.9391 43.4787ZM57.8791 33.7127C57.8411 33.3427 57.7671 32.9807 57.7111 32.6167C52.7511 33.1227 47.9391 34.2507 43.2251 35.8127C41.1811 36.6927 40.7391 39.5087 42.2031 41.1067C45.0691 44.8327 48.0691 48.3707 51.5811 51.5107C51.8451 51.2447 52.0871 50.9567 52.3371 50.6787C51.0651 47.8347 49.5531 45.1507 47.8951 42.5427L49.4711 37.7027C52.3491 36.5647 55.1751 35.2727 57.8791 33.7127ZM16.4391 25.9767C20.5091 28.3427 24.7971 30.1007 29.2231 31.6747C31.1631 32.5867 33.7651 31.2567 33.9431 29.0687C33.9731 24.1047 33.5571 19.1767 32.5051 14.3047C32.1331 14.3647 31.7611 14.4147 31.3951 14.4927C30.9549 16.625 30.635 18.7804 30.4371 20.9487C30.3411 21.8447 30.2651 22.7767 30.2051 23.7187L26.0871 26.7027C23.0951 25.9327 20.0751 25.3267 16.9791 24.9947C16.7911 25.316 16.6111 25.6434 16.4391 25.9767ZM41.9551 31.9027C46.6871 30.3967 51.2471 28.4787 55.5571 25.9707C55.3839 25.6349 55.2011 25.3041 55.0091 24.9787C52.8291 25.2107 50.6991 25.5967 48.5951 26.0607C47.7131 26.2447 46.8031 26.4607 45.8891 26.6947L41.7771 23.7007C41.5851 20.6107 41.2271 17.5447 40.5811 14.4887C40.2211 14.4127 39.8511 14.3627 39.4851 14.3047C38.4931 18.9047 38.1451 23.5247 38.0171 28.2207C37.7491 30.3447 39.8191 32.4087 41.9551 31.9027ZM20.4151 51.5107C23.9271 48.3707 26.9251 44.8327 29.7931 41.1067C31.2591 39.5067 30.8131 36.6927 28.7731 35.8127C24.0611 34.2507 19.2471 33.1227 14.2871 32.6187C14.2311 32.9847 14.1571 33.3447 14.1191 33.7147C16.8231 35.2747 19.6491 36.5667 22.5271 37.7027L24.1031 42.5427C22.4451 45.1507 20.9351 47.8347 19.6611 50.6787C19.9111 50.9567 20.1511 51.2447 20.4151 51.5107Z" fill="#DFA101"/>
<path d="M44.9399 38.3338C47.2417 37.5713 49.5262 36.7577 51.7919 35.8938C53.8303 35.1226 55.844 34.2876 57.8299 33.3898C57.8099 33.2138 57.7759 33.0438 57.7499 32.8698C52.9864 33.8761 48.2852 35.1576 43.6699 36.7078C42.3219 37.2238 41.9079 39.2298 42.8439 40.2918C42.9439 40.4398 43.2439 40.8138 43.3459 40.9678C45.9999 44.5318 48.7699 48.0158 51.7539 51.3198C51.8799 51.1898 51.9959 51.0518 52.1179 50.9198C49.7499 46.8138 47.0959 42.8858 44.3739 39.0198C44.1339 38.5858 44.6039 38.4418 44.9399 38.3338ZM19.8799 50.9218C20.0019 51.0538 20.1179 51.1938 20.2439 51.3218C23.2259 48.0178 25.9979 44.5338 28.6519 40.9698C28.7559 40.8198 29.0559 40.4398 29.1539 40.2938C30.0939 39.2318 29.6739 37.2258 28.3299 36.7098C23.7147 35.1596 19.0135 33.8781 14.2499 32.8718C14.2259 33.0458 14.1919 33.2158 14.1699 33.3918C16.1639 34.2838 18.1719 35.1338 20.2099 35.8958C22.4758 36.7591 24.7604 37.5726 27.0619 38.3358C27.3979 38.4418 27.8659 38.5878 27.6259 39.0218C24.9039 42.8878 22.2479 46.8158 19.8799 50.9218ZM38.4559 44.5238C38.3459 44.3778 38.0779 43.9758 37.9679 43.8378C37.2479 42.6158 35.2099 42.3938 34.3039 43.5138C31.4038 47.4232 28.7327 51.4974 26.3039 55.7158C26.4613 55.7945 26.6199 55.8712 26.7799 55.9458C28.2448 54.3366 29.6589 52.6818 31.0199 50.9838C32.5412 49.0952 34.0209 47.1734 35.4579 45.2198C35.6619 44.9338 35.9459 44.5318 36.2839 44.8958C39.1239 48.6818 42.0399 52.4238 45.2159 55.9458C45.3786 55.8698 45.5399 55.7918 45.6999 55.7118C43.4819 51.8578 41.0239 48.1478 38.4559 44.5238ZM16.5499 25.7458C20.6159 27.5638 24.7899 29.1238 29.0019 30.5458C29.9859 30.9158 31.0399 31.2418 32.0279 30.5318C33.0099 29.8138 33.0239 28.7078 32.9759 27.6578C32.9279 23.2138 32.7339 18.7658 32.2599 14.3398C32.0839 14.3698 31.9059 14.3858 31.7319 14.4218C31.2439 19.0078 31.0579 23.6138 31.0179 28.2178C31.0219 28.5698 31.0279 29.0618 30.5399 28.9658C26.0139 27.5698 21.4519 26.2578 16.8099 25.2738L16.5499 25.7458ZM39.0239 27.6598C39.0279 27.8418 39.0079 28.3258 39.0159 28.5018C38.8799 29.9138 40.3979 31.2898 41.7899 30.9178C46.4382 29.458 50.9978 27.7297 55.4459 25.7418L55.1919 25.2798C53.0578 25.7211 50.9381 26.2294 48.8359 26.8038C46.4952 27.4375 44.1686 28.1223 41.8579 28.8578C41.5239 28.9698 41.0579 29.1278 40.9979 28.6338C40.9259 23.8958 40.7639 19.1458 40.2639 14.4238C40.0919 14.3898 39.9119 14.3738 39.7379 14.3438C39.2699 18.7698 39.0759 23.2158 39.0239 27.6598Z" fill="#9B7000"/>
</g>
<defs>
<clipPath id="clip0_1408_233">
<rect width="72" height="72" fill="white"/>
</clipPath>
</defs>
</svg>
